PathFileType	4	(X/Y/Z)	C:/Users/beibeiliu/ov580/test_trc/User1\sequence.7_training_dense_right.trc
DataRate	CameraRate	NumFrames	NumMarkers	Units	OrigDataRate	OrigDataStartFrame	OrigNumFrames
120	120	21	19	mm	120	259	295
Frame#	Time	ThumbCMC			ThumbMCP			ThumbIP			ThumbTip			IndexMCP			IndexPIP			IndexTip			MiddleMCP			MiddlePIP			MiddleTip			RingMCP			RingPIP			RingTip			PinkyMCP			PinkyPIP			PinkyTip			BackHand1			BackHand2			BackHand3	
		X0	Y0	Z0	X1	Y1	Z1	X2	Y2	Z2	X3	Y3	Z3	X4	Y4	Z4	X5	Y5	Z5	X6	Y6	Z6	X7	Y7	Z7	X8	Y8	Z8	X9	Y9	Z9	X10	Y10	Z10	X11	Y11	Z11	X12	Y12	Z12	X13	Y13	Z13	X14	Y14	Z14	X15	Y15	Z15	X16	Y16	Z16	X17	Y17	Z17	X18	Y18	Z18	
258	2.15	156.138	119.428	20.6808	117.433	111.895	3.52905	98.9663	95.6738	-9.62245	84.5763	70.2016	-17.269	165.18	78.4954	-52.8629	159.713	62.6177	-77.6177	153.847	48.1581	-93.6219	138.776	54.0376	-42.9963	103.484	60.6321	-30.8136	113.079	76.1778	3.82156	130.111	38.8524	-20.6126	106.133	53.0795	-1.18592	123.09	71.0629	23.424	140.389	29.6476	-1.98266	116.988	44.5295	14.4665	136.336	68.9438	26.7896	189.515	56.3487	6.4456	200.902	64.9936	37.8663	192.721	95.432	8.87708	
259	2.15833	163.696	121.079	18.0649	126.732	114.494	3.14108	105.607	102.778	-11.3228	86.9852	83.4151	-17.7297	168.348	79.4452	-56.6074	161.722	65.4502	-77.9246	154.352	49.8885	-99.208	135.792	56.5609	-44.5469	105.554	68.2167	-34.3307	111.203	79.1106	1.61676	131.865	46.5617	-23.284	106.77	57.879	-4.81213	120.392	77.508	19.5657	131.809	30.9998	-1.75086	115.541	53.7254	13.4563	134.004	73.3406	26.882	187.417	50.2886	5.97112	200.217	61.8984	41.8328	195.73	94.2448	11.044	
260	2.16667	169.285	122.673	19.0676	133.576	120.963	5.40453	108.986	111.515	-12.3405	86.9239	92.0253	-20.6045	170.209	74.9024	-54.5301	163.703	62.5005	-74.3509	152.364	49.3882	-98.3573	140.949	60.3876	-43.6916	106.417	70.7116	-36.2754	112.838	87.5921	-0.789974	129.013	50.5716	-22.5386	105.266	67.7555	-4.95213	121.272	82.7697	21.1762	128.086	35.2245	-1.79527	113.043	56.5533	10.9986	133.189	75.496	27.1162	185.023	50.1341	10.911	199.73	61.2896	41.2849	198.171	86.5535	8.4725	
261	2.175	174.894	119.53	19.8817	136.417	122.079	1.89762	112.626	111.185	-14.4449	93.929	93.0228	-19.3001	171.154	75.934	-52.8169	164.793	66.4101	-75.3232	149.748	49.9159	-95.0905	137.885	63.491	-46.181	106.715	74.2222	-34.6257	116.323	94.1836	-0.366067	125.309	52.5937	-22.0693	104.082	69.0079	-5.13644	121.747	87.7745	21.1704	130.222	38.3764	-1.23062	110.482	61.0828	10.887	135.962	80.4532	24.7284	183.091	48.0121	9.05638	198.733	60.649	40.0208	198.748	85.4516	10.9981	
262	2.18333	176.592	119.722	16.5763	140.229	126.467	5.76193	115.254	119.853	-11.8619	93.4306	100.957	-18.1153	170.417	74.8882	-54.7568	160.321	61.8539	-73.6124	144.998	49.501	-93.9803	135.853	62.3686	-43.251	105.364	79.6514	-33.4706	116.689	95.1761	-1.64806	125.983	54.1904	-21.1299	104.09	76.864	-4.86404	120.04	89.2308	22.9854	124.903	41.8961	-0.65564	109.086	64.7816	8.70695	128.786	82.4151	25.5713	180.595	46.1862	13.5555	198.622	55.0135	40.8223	199.476	80.9583	8.57164	
263	2.19167	177.413	118.333	16.0448	141.897	126.401	3.37425	115.889	117.487	-14.1722	93.4934	104.111	-18.9363	170.424	75.0366	-53.9185	159.464	64.2054	-77.1388	141.024	54.5353	-92.4482	136.317	63.3603	-42.1147	106.529	80.5411	-35.8289	118.536	101.475	-2.92131	123.319	56.6389	-21.9279	101.072	76.4789	-3.87824	116.8	90.1942	21.4479	123.147	42.0965	-0.101527	108.024	67.2087	9.47446	127.647	86.8271	24.7393	179.447	47.5121	11.6664	197.665	54.785	41.1715	198.448	82.0735	12.034	
264	2.2	180.745	121.527	20.2536	144.446	127.411	6.15386	116.768	119.753	-13.0828	96.625	106.034	-15.3141	168.441	73.5502	-52.9831	156.41	65.2652	-74.866	131.989	56.3457	-89.0703	133.869	64.8614	-42.2852	104.935	83.5016	-33.8845	120.352	101.565	0.0695786	122.1	55.5619	-19.9708	102.148	81.8738	-6.2027	119.659	92.9516	23.0654	122.495	45.5075	-1.22394	106.936	70.3954	8.11707	130.758	87.7047	25.0158	176.774	44.9483	14.152	194.397	54.5042	39.4634	198.337	80.541	12.2121	
265	2.20833	179.796	116.014	18.4434	143.906	127.412	3.66882	117.013	121.669	-13.1751	93.0582	106.668	-17.7897	167.535	72.7242	-49.6901	152.397	63.082	-73.1433	123.803	61.2287	-87.9539	131.306	66.7646	-43.7634	106.08	85.3145	-34.1154	118.944	99.7879	0.273706	120.854	59.4377	-20.5004	100.046	82.1093	-2.33962	116.093	94.2212	19.4853	117.047	45.0766	0.225889	105.377	69.257	7.30567	127.304	86.0898	28.6229	173.146	44.7602	10.1292	195.651	53.3186	43.2238	198.964	79.5625	11.2642	
266	2.21667	179.428	118.61	18.0639	144.526	126.272	6.60058	120.694	120.066	-9.40788	92.4477	108.111	-17.4922	167.88	73.4351	-45.7503	147.749	63.8716	-74.1536	118.478	65.6177	-81.337	130.774	66.0404	-41.9117	104.9	87.1282	-32.9608	119.05	104.292	-1.81688	121.572	60.1349	-21.6978	100.143	77.6944	-3.85435	118.011	93.8146	21.6628	122.225	45.2819	-0.230735	103.418	68.9318	11.914	128.927	89.1369	26.1245	175.279	44.2148	11.8842	191.205	51.4141	40.3564	196.581	77.7208	14.4469	
267	2.225	180.015	115.208	23.9084	144.579	125.736	5.94591	119.887	121.495	-9.64443	95.7934	108.099	-15.6971	168.318	77.2441	-49.5285	146.339	63.4081	-69.4611	111.322	73.4373	-76.1876	133.069	68.4187	-43.0161	105.413	85.8122	-32.1193	117.646	102.494	-0.733156	120.123	58.7365	-21.0047	101.964	83.3279	-5.12942	120.407	96.2735	21.8877	120.785	45.8461	0.365726	103.786	68.4852	11.0352	129.149	87.2692	28.6944	173.859	43.5703	9.89733	192.932	49.8855	40.7297	196.239	77.8499	10.961	
268	2.23333	181.666	118.365	24.2679	143.724	129.728	5.09385	121.79	123.666	-7.70941	94.5659	108.918	-18.7795	166.48	71.8393	-49.6598	144.162	68.0011	-72.647	113.932	80.5234	-72.2486	132.935	66.8103	-41.9913	107.044	86.6793	-36.1566	119.266	100.423	2.03629	120.012	60.4594	-22.2136	101.985	84.2811	-5.67409	118.635	96.3368	19.6265	118.671	44.9304	1.06653	105.563	72.4035	12.1232	127.455	87.864	31.7624	173.547	45.6691	9.91897	190.385	49.9542	44.8416	198.56	80.0921	15.998	
269	2.24167	179.358	114.379	22.9472	145.637	127.159	5.94201	120.477	123.763	-9.21007	96.0839	109.872	-16.7243	167.611	76.161	-49.4056	140.337	67.3676	-69.7966	113.448	83.0622	-64.5625	136.458	68.4578	-42.3243	104.412	86.0125	-32.6519	118.859	100.672	1.82411	121.895	57.3568	-20.0842	100.987	81.8034	-7.3032	116.15	95.6474	18.7787	116.36	44.7007	2.22478	104.935	71.1904	12.5259	126.802	86.1367	31.6863	174.409	44.9582	10.4716	191.538	49.9345	40.8783	198.337	79.1344	14.0955	
270	2.25	180.761	118.717	21.2983	145.166	130.747	7.28123	122.237	123.013	-6.62031	98.3526	108.447	-14.8616	165.436	73.3843	-47.5785	137.838	68.2478	-68.0837	112.716	86.972	-61.7414	134.659	68.5862	-43.2442	104.744	85.1038	-35.0343	120.203	105.259	-1.14631	119.399	59.583	-20.0781	101.389	85.8259	-4.24546	119.484	96.5821	22.0722	117.483	44.6908	1.4248	102.826	69.5821	12.3933	126.934	86.5656	27.4191	173.826	46.8691	14.285	193.777	52.2678	43.5151	199.325	77.0336	16.4233	
271	2.25833	180.617	118.236	23.0903	144.483	130.688	6.43671	120.143	125.963	-8.71207	97.7912	107.951	-16.8374	165.259	76.0466	-47.8805	140.064	70.1747	-69.4761	110.996	91.6274	-59.3888	134.441	68.0267	-41.8414	104.246	84.9591	-34.8103	117.635	101.386	-1.68797	121.188	58.7768	-20.0586	99.376	81.7368	-2.45053	116.957	95.4276	21.1843	118.374	46.8906	0.198415	103.664	72.3642	13.5206	125.341	88.6024	28.5592	174.188	45.947	9.61038	189.804	49.4481	46.9627	199.364	77.8632	14.7673	
272	2.26667	179.056	116.401	21.1566	145.188	126.473	6.22887	121.243	120.479	-10.5045	98.385	110.038	-15.9478	166.912	77.8467	-47.6628	141.117	67.8099	-69.0017	113.638	86.4274	-65.9276	131.448	65.2085	-42.0191	104.014	86.5423	-33.7718	121.273	102.247	0.887147	122.5	59.5959	-21.0066	98.233	82.6621	-2.24003	115.43	94.8343	20.0547	114.457	47.84	0.857148	102.495	72.0452	14.0369	125.503	85.9657	32.7742	172.452	47.3211	11.78	191.252	49.283	42.7665	195.983	74.151	16.7084	
273	2.275	180.552	117.116	23.8205	145.242	124.571	5.57444	120.903	124.526	-8.18827	96.1	111.171	-18.5666	168.39	76.5795	-46.5331	147.591	68.1601	-71.4938	115.394	80.2297	-71.8425	134.591	65.247	-41.0975	104.596	87.7554	-33.1416	117.538	101.495	-1.40494	118.766	59.5049	-19.5583	99.6899	81.4865	-3.29914	118.362	96.4884	21.3748	116.964	44.6711	1.80753	104.177	71.1102	8.83214	122.763	87.1824	29.1859	176.375	47.8122	13.7475	189.252	51.1826	41.7562	195.298	75.3783	12.9452	
274	2.28333	180.126	116.328	26.3316	145.718	126.613	10.0228	118.073	123.457	-11.3207	96.6038	109.886	-16.7429	168.761	78.0975	-51.0049	150.31	67.5344	-72.6662	122.412	74.5681	-85.4733	132.299	70.0782	-43.4658	104.558	87.7279	-32.3158	117.909	104.29	0.328357	116.655	59.8602	-20.166	100.769	81.7298	-7.05823	116.566	94.0067	23.2794	117.99	43.3332	2.22856	103.091	70.4798	11.6326	123.591	84.5964	31.2775	176.666	47.3214	11.3061	192.096	48.3753	46.5657	194.711	75.858	14.7084	
275	2.29167	177.663	116.989	24.3911	141.326	129.144	7.30371	119.186	120.385	-8.65823	94.4198	111.51	-17.5001	169.043	79.589	-46.5954	155.278	70.0968	-75.1341	129.261	67.8758	-94.2764	133.471	67.5159	-41.6537	104.848	88.1061	-32.9995	114.404	101.103	-0.512843	122.278	57.24	-19.7098	99.6821	79.3325	-3.26845	114.498	94.491	20.1418	116.231	46.2703	-0.167786	106.65	71.4165	9.34801	124.321	86.4169	29.1189	172.711	45.7523	9.65676	193.165	52.6761	42.8955	194.939	77.5731	16.4545	
276	2.3	178.49	118.127	26.7957	141.669	130.591	9.18269	117.085	126.675	-7.75545	92.9041	112.349	-17.5853	171.203	82.1514	-47.4513	159.193	69.6151	-72.0911	141.459	63.5361	-97.7473	138.199	71.6516	-42.512	105.065	87.8331	-33.2229	113.011	99.7487	0.054708	120.104	62.1509	-21.8818	101.184	83.462	-3.48463	114.19	93.3595	20.6874	120.362	48.5729	-3.7465	108.123	71.8396	8.5808	125.784	86.8931	29.6533	175.101	49.3333	8.15185	191.531	51.4266	44.8876	195.47	78.5602	14.3596	
277	2.30833	177.443	115.837	21.4359	143.588	126.651	6.97274	117.629	124.071	-10.0811	97.1613	112.631	-14.6988	171.421	80.4496	-50.6821	163.218	72.9879	-73.9587	146.96	58.9206	-98.0264	137.703	70.0442	-43.2058	107.326	86.7729	-36.2635	117.628	99.9364	3.28633	122.437	63.1671	-22.8138	101.593	79.7279	-5.68031	118.658	96.659	21.4092	122.093	46.3183	-2.17547	106.414	70.3216	11.3358	129.324	85.4891	27.3672	176.537	47.8811	8.80029	194.811	52.5184	43.2014	199.742	81.9994	12.633	
278	2.31667	179.002	119.437	21.4853	143.591	126.366	5.36181	118.583	123.796	-9.97244	95.3519	109.855	-18.0654	173.735	82.2957	-51.7041	163.67	71.2574	-75.5573	150.802	59.5832	-93.6699	136.352	69.0522	-42.7989	108.844	88.139	-37.6273	116.661	103.453	-1.12761	123.386	63.634	-23.609	102.829	82.1341	-6.34291	117.838	93.9305	20.9781	123.347	45.51	-3.21782	105.151	67.7989	8.30982	128.67	86.7591	30.0885	176.985	48.2531	8.58827	194.769	49.754	43.9953	199.849	82.189	12.5922	
